<svg xmlns="http://www.w3.org/2000/svg" xmlns:xlink="http://www.w3.org/1999/xlink" width="500" zoomAndPan="magnify" viewBox="0 0 375 374.999991" height="500" preserveAspectRatio="xMidYMid meet" version="1.0"><defs><clipPath id="f43d790e54"><path d="M 20.945312 236 L 354.332031 236 L 354.332031 364.882812 L 20.945312 364.882812 Z M 20.945312 236 " clip-rule="nonzero"/></clipPath><clipPath id="931a4b5c90"><path d="M 133.839844 257.164062 L 241 257.164062 L 241 364.882812 L 133.839844 364.882812 Z M 133.839844 257.164062 " clip-rule="nonzero"/></clipPath><clipPath id="b53119f3a5"><path d="M 158.300781 258.101562 L 214.746094 258.101562 L 214.746094 364.882812 L 158.300781 364.882812 Z M 158.300781 258.101562 " clip-rule="nonzero"/></clipPath><clipPath id="a036cb8361"><path d="M 97.148438 236 L 188 236 L 188 364.882812 L 97.148438 364.882812 Z M 97.148438 236 " clip-rule="nonzero"/></clipPath><clipPath id="762c5a31cc"><path d="M 187.464844 236 L 278.71875 236 L 278.71875 364.882812 L 187.464844 364.882812 Z M 187.464844 236 " clip-rule="nonzero"/></clipPath><clipPath id="8726bac455"><path d="M 80.214844 323 L 93 323 L 93 364.882812 L 80.214844 364.882812 Z M 80.214844 323 " clip-rule="nonzero"/></clipPath><clipPath id="fd68fd0ee4"><path d="M 282.480469 323 L 295 323 L 295 364.882812 L 282.480469 364.882812 Z M 282.480469 323 " clip-rule="nonzero"/></clipPath></defs><g clip-path="url(#f43d790e54)"><path fill="#6b809b" d="M 170 295.773438 L 134.160156 236.082031 C 87.945312 251.722656 27.671875 255.996094 23.339844 318.140625 C 22.792969 326.011719 21.511719 345.6875 20.945312 364.921875 L 354.332031 364.921875 C 353.765625 345.6875 352.484375 326.011719 351.9375 318.140625 C 347.605469 255.996094 287.328125 251.722656 241.121094 236.082031 L 205.28125 295.773438 L 170 295.773438 " fill-opacity="1" fill-rule="evenodd"/></g><path fill="#000000" d="M 254.582031 77.90625 L 253.335938 104.839844 C 263.984375 125.019531 253.097656 136.046875 247.507812 140.066406 C 244.851562 163.253906 231.558594 178.722656 214.753906 186.433594 C 206.53125 190.203125 197.511719 192.089844 188.527344 192.089844 C 179.535156 192.089844 170.515625 190.203125 162.292969 186.433594 C 145.488281 178.722656 132.195312 163.253906 129.539062 140.066406 C 123.945312 136.046875 113.0625 125.019531 123.710938 104.839844 L 122.460938 77.90625 L 122.683594 76.085938 C 127.589844 59.308594 138.953125 47.230469 153.101562 39.832031 C 164.527344 33.859375 177.773438 30.96875 190.839844 31.164062 C 203.964844 31.363281 216.980469 34.667969 227.875 41.074219 C 240.6875 48.601562 250.582031 60.359375 254.429688 76.355469 L 254.582031 77.90625 " fill-opacity="1" fill-rule="nonzero"/><g clip-path="url(#931a4b5c90)"><path fill="#ffffff" d="M 187.289062 257.980469 C 216.761719 257.980469 240.652344 277.785156 240.652344 295.039062 C 240.652344 312.296875 229.410156 358.632812 212.832031 364.921875 L 161.738281 364.921875 C 145.167969 358.632812 133.925781 312.292969 133.925781 295.039062 C 133.925781 277.785156 157.816406 257.980469 187.289062 257.980469 " fill-opacity="1" fill-rule="evenodd"/></g><g clip-path="url(#b53119f3a5)"><path fill="#00bcd4" d="M 187.996094 258.378906 L 167.871094 279.570312 L 173.867188 287.226562 L 158.390625 364.921875 L 200.671875 364.921875 L 214.140625 364.339844 L 204.007812 287.253906 L 208.125 279.570312 L 187.996094 258.378906 " fill-opacity="1" fill-rule="evenodd"/></g><path fill="#d3aa96" d="M 232.675781 170.464844 L 234.898438 216.050781 L 186.539062 264.46875 L 141.097656 214.859375 L 143.183594 170.324219 L 232.675781 170.464844 " fill-opacity="1" fill-rule="evenodd"/><path fill="#02abc1" d="M 184.75 258.375 L 167.871094 279.570312 L 173.867188 287.226562 L 173.859375 287.253906 L 204.007812 287.253906 L 208.125 279.570312 L 191.621094 258.375 L 184.75 258.375 " fill-opacity="1" fill-rule="evenodd"/><path fill="#e8e8e8" d="M 120.847656 236.082031 L 141.21875 212.132812 L 187.996094 258.382812 L 152.21875 298.351562 L 120.847656 236.082031 " fill-opacity="1" fill-rule="evenodd"/><path fill="#e8e8e8" d="M 255.148438 236.082031 L 234.777344 212.132812 L 187.996094 258.382812 L 223.777344 298.351562 L 255.148438 236.082031 " fill-opacity="1" fill-rule="evenodd"/><path fill="#d3aa96" d="M 254.640625 112.542969 C 254.640625 112.542969 277.578125 146.085938 247.726562 159.9375 L 254.640625 112.542969 " fill-opacity="1" fill-rule="evenodd"/><path fill="#d3aa96" d="M 121.355469 112.542969 C 121.355469 112.542969 98.421875 146.085938 128.265625 159.9375 L 121.355469 112.542969 " fill-opacity="1" fill-rule="evenodd"/><path fill="#ffceb4" d="M 193.90625 48.703125 C 230.539062 48.703125 255.4375 77.421875 255.4375 126.417969 C 255.4375 158.316406 231.992188 223.78125 194.308594 223.78125 C 190.089844 223.78125 185.90625 223.78125 181.6875 223.78125 C 144.003906 223.78125 120.558594 158.316406 120.558594 126.417969 C 120.558594 77.421875 145.457031 48.703125 182.089844 48.703125 C 186.03125 48.703125 189.964844 48.703125 193.90625 48.703125 " fill-opacity="1" fill-rule="evenodd"/><path fill="#000000" d="M 120.558594 126.398438 C 120.558594 126.398438 111.824219 66.609375 121.882812 61.316406 C 119.972656 50.523438 130.667969 40.855469 138.234375 37.964844 C 138.234375 37.964844 151.476562 22.355469 182.722656 19.179688 C 182.722656 19.179688 229.988281 10.175781 257.683594 53.570312 C 262.164062 60.589844 261.410156 59.011719 256.34375 65.488281 C 259.894531 84.226562 259.554688 109.25 255.425781 127.648438 C 255.425781 127.648438 248.132812 81.09375 239.921875 75.011719 C 239.921875 75.011719 191.726562 100.941406 138.5 70.511719 C 138.5 70.511719 131.25 75.847656 127.96875 88.929688 C 127.230469 91.863281 126.757812 94.738281 126.253906 98.179688 C 124.808594 108.101562 122.859375 116.46875 120.558594 126.398438 " fill-opacity="1" fill-rule="evenodd"/><g clip-path="url(#a036cb8361)"><path fill="#4f6074" d="M 140.964844 364.921875 L 105.957031 298.453125 L 116.847656 279.699219 L 97.234375 273.578125 L 100.929688 244.699219 L 122.445312 236.082031 L 123.429688 238.027344 L 187.640625 364.921875 L 140.964844 364.921875 " fill-opacity="1" fill-rule="evenodd"/></g><g clip-path="url(#762c5a31cc)"><path fill="#4f6074" d="M 234.3125 364.921875 L 269.320312 298.453125 L 258.429688 279.699219 L 278.042969 273.578125 L 274.351562 244.699219 L 252.832031 236.082031 L 251.84375 238.027344 L 187.640625 364.921875 L 234.3125 364.921875 " fill-opacity="1" fill-rule="evenodd"/></g><g clip-path="url(#8726bac455)"><path fill="#4f6074" d="M 85.246094 323.375 L 92.769531 364.921875 L 80.488281 364.921875 Z M 85.246094 323.375 " fill-opacity="1" fill-rule="evenodd"/></g><g clip-path="url(#fd68fd0ee4)"><path fill="#4f6074" d="M 290.03125 323.375 L 282.507812 364.921875 L 294.785156 364.921875 Z M 290.03125 323.375 " fill-opacity="1" fill-rule="evenodd"/></g></svg>